<svg fill="none" viewBox="0 0 112 24" xmlns="http://www.w3.org/2000/svg">
  <g fill="currentColor">
    <path clip-rule="evenodd" d="m20.9444 20c1.9002-2.123 3.0556-4.9266 3.0556-8 0-.3368-.0139-.6703-.0411-1h-23.9178262c-.0272025.3297-.0410738.6632-.0410738 1 0 .6814.0567976 1.3496.165917 2h7.479993c2.43439 0 4.65989 1.3754 5.74849 3.5528.75 1.4998 2.2829 2.4472 3.9597 2.4472zm-20.566348-11h23.243848c-.2739-1.06431-.6902-2.07148-1.2273-3h-20.78921c-.53712.92852-.953402 1.93569-1.227338 3zm11.621948-9c3.554 0 6.7471 1.545 8.9444 4h-17.88883c2.19729-2.455 5.39043-4 8.94443-4zm6.6356 22c-1.9006 1.2637-4.1821 2-6.6356 2-5.22488 0-9.66983-3.3392-11.317177-8h6.963087c1.67685 0 3.20979.9474 3.95969 2.4472 1.0887 2.1774 3.3141 3.5528 5.7485 3.5528z" fill-rule="evenodd"/>
    <path d="m32.3683 8.021h-3.3683v-2.021h9.0867v2.021h-3.3684v9.165h-2.35z"/>
    <path d="m37.8126 9.008h2.1307v1.1437c.2715-.42825.6005-.74681.987-.9557.3864-.21933.7938-.329 1.222-.329.2089 0 .3812.01044.517.03133.1358.01045.2559.02612.3603.047l-.2663 1.98967c-.2507-.0627-.5588-.094-.9243-.094-.2403 0-.47.0313-.6894.094-.2193.0522-.4178.1567-.5953.3133-.188.1671-.329.3551-.423.564-.0836.2089-.1253.423-.1253.6424v4.7313h-2.1934z"/>
    <path d="m48.7585 16.152c-.3238.3656-.6893.6632-1.0967.893-.3969.2298-.9139.3447-1.551.3447-.3655 0-.7154-.047-1.0496-.141-.3238-.094-.611-.2403-.8617-.4387-.2402-.1984-.4335-.4491-.5797-.752-.1462-.3133-.2193-.6841-.2193-1.1123 0-.564.1253-1.0236.376-1.3787s.5797-.6319.987-.8303c.4073-.1985.8617-.3395 1.363-.423.5118-.0836 1.0288-.1358 1.551-.1567l1.0497-.047v-.4073c0-.5014-.141-.846-.423-1.034-.2716-.188-.5954-.282-.9714-.282-.8669 0-1.363.329-1.4883.987l-2.0053-.188c.1462-.8565.5222-1.4727 1.128-1.8487.6057-.38644 1.4204-.57967 2.444-.57967.6266 0 1.1593.07834 1.598.235.4386.14623.7885.36034 1.0496.64234.2716.282.4648.62663.5797 1.03403.1253.3969.188.846.188 1.3473v5.17h-2.068zm-.047-2.6163-.9713.047c-.4596.0209-.8304.0679-1.1124.141s-.5013.1671-.658.282c-.1462.1044-.2454.2297-.2976.376-.0523.1462-.0784.3081-.0784.4856 0 .2716.094.4857.282.6424.188.1566.4491.235.7834.235.564 0 1.0235-.1306 1.3786-.3917.1985-.1462.3604-.329.4857-.5483.1253-.2298.188-.5118.188-.846z"/>
    <path d="m52.6837 9.008h2.1307v1.128c.3238-.48044.705-.83033 1.1437-1.04967.4491-.21933.9138-.329 1.3943-.329.9295 0 1.6189.24545 2.068.73634.4491.48044.6737 1.24293.6737 2.28733v5.405h-2.1934v-5.1073c0-.5745-.1096-.9661-.329-1.175-.2193-.2089-.5118-.3134-.8773-.3134-.282 0-.5275.0418-.7363.1254-.1985.0835-.3865.2036-.564.3603-.1463.1462-.2716.3238-.376.5327-.094.1984-.141.4177-.141.658v4.9193h-2.1934z"/>
    <path d="m63.5375 14.5853c.0731.4805.2664.7938.5797.94.3133.1463.6893.2194 1.128.2194.5222 0 .893-.0627 1.1123-.188.2298-.1358.3447-.3499.3447-.6424 0-.2089-.0731-.3916-.2193-.5483-.1358-.1567-.4021-.2663-.799-.329l-1.128-.188c-.9923-.1567-1.7338-.423-2.2247-.799-.4804-.3864-.7207-.9661-.7207-1.739 0-.3969.0836-.752.2507-1.0653.1776-.31337.423-.5797.7363-.79903.3134-.21934.6841-.38645 1.1124-.50134.4386-.12533.9191-.188 1.4413-.188.6476 0 1.1907.06789 1.6293.20367.4387.12533.7938.29767 1.0654.517.282.21933.4909.48044.6266.7833.1463.3029.2507.6267.3134.9714l-1.9584.2506c-.094-.376-.2611-.6527-.5013-.8303-.2298-.1776-.6058-.2663-1.128-.2663-.2924 0-.5379.0261-.7363.0783-.188.0418-.3395.0992-.4544.1723-.1044.0731-.1827.1567-.235.2507-.0417.094-.0626.1828-.0626.2663 0 .2611.0783.4544.235.5797.1671.1149.4856.2141.9556.2977l1.034.1723c.5745.094 1.0497.2141 1.4257.3603.376.1463.6737.329.893.5484.2298.2089.3864.4595.47.752.094.2924.141.6319.141 1.0183 0 .7729-.2924 1.3943-.8773 1.8643-.5849.4596-1.4884.6894-2.7104.6894-.4909 0-.9609-.047-1.41-.141-.4386-.0836-.8355-.235-1.1906-.4544-.3447-.2193-.6319-.5117-.8617-.8773-.2193-.3656-.3447-.8251-.376-1.3787z"/>
    <path d="m70.3699 9.008h2.1307v1.081c.6267-.88778 1.4831-1.33167 2.5693-1.33167 1.1385 0 1.9897.38645 2.5537 1.15934.564.77293.846 1.83303.846 3.18033 0 .6476-.0836 1.2377-.2507 1.7703-.1566.5327-.3916.9923-.705 1.3787-.3029.376-.6736.6684-1.1123.8773s-.9348.3134-1.4883.3134c-.4074 0-.8147-.0731-1.222-.2194-.3969-.1462-.7729-.4386-1.128-.8773v3.8853h-2.1934zm2.1777 4.1517c0 .5326.0418.9609.1253 1.2846.094.3134.2402.5693.4387.7677.2089.188.4178.3133.6267.376.2193.0522.4386.0783.658.0783.2402 0 .47-.047.6893-.141s.4073-.2402.564-.4386c.1671-.2089.2977-.4753.3917-.799.094-.3238.141-.7155.141-1.175 0-.4805-.047-.8826-.141-1.2064-.0836-.3237-.2037-.5849-.3604-.7833-.1566-.2089-.3446-.3551-.564-.4387-.2089-.094-.4334-.141-.6736-.141-.2716 0-.5066.0366-.705.1097-.1985.0731-.3917.188-.5797.3447-.2089.1984-.3656.4491-.47.752-.094.3029-.141.6893-.141 1.1593z"/>
    <path d="m83.832 17.4367c-1.316 0-2.3343-.376-3.055-1.128s-1.081-1.8278-1.081-3.2274c0-.6684.094-1.269.282-1.8016.1984-.5431.4752-.9975.8303-1.36303.3656-.376.8042-.66322 1.316-.86167.5118-.19844 1.081-.29767 1.7077-.29767.6371 0 1.2115.09923 1.7233.29767.5118.19845.9452.48567 1.3004.86167.3655.36553.6423.81993.8303 1.36303.188.5326.282 1.1332.282 1.8016 0 .6789-.0992 1.2899-.2977 1.833-.188.5327-.4648.987-.8303 1.363-.3551.376-.7886.6633-1.3003.8617-.5118.1984-1.081.2977-1.7077.2977zm0-1.7547c.6267 0 1.0914-.2246 1.3943-.6737.3134-.4491.47-1.0914.47-1.927 0-.8355-.1566-1.4726-.47-1.9113-.3029-.4387-.7676-.658-1.3943-.658s-1.0967.2193-1.41.658c-.3029.4387-.4543 1.0758-.4543 1.9113 0 .846.1514 1.4936.4543 1.9427.3029.4387.7729.658 1.41.658z"/>
    <path d="m91.2143 14.5853c.0731.4805.2663.7938.5797.94.3133.1463.6893.2194 1.128.2194.5222 0 .893-.0627 1.1123-.188.2298-.1358.3447-.3499.3447-.6424 0-.2089-.0731-.3916-.2194-.5483-.1357-.1567-.4021-.2663-.799-.329l-1.128-.188c-.9922-.1567-1.7337-.423-2.2246-.799-.4805-.3864-.7207-.9661-.7207-1.739 0-.3969.0836-.752.2507-1.0653.1775-.31337.423-.5797.7363-.79903.3133-.21934.6841-.38645 1.1123-.50134.4387-.12533.9191-.188 1.4414-.188.6475 0 1.1906.06789 1.6293.20367.4387.12533.7938.29767 1.0653.517.282.21933.4909.48044.6267.7833.1462.3029.2507.6267.3133.9714l-1.9583.2506c-.094-.376-.2611-.6527-.5013-.8303-.2298-.1776-.6058-.2663-1.128-.2663-.2925 0-.5379.0261-.7364.0783-.188.0418-.3394.0992-.4543.1723-.1044.0731-.1828.1567-.235.2507-.0418.094-.0627.1828-.0627.2663 0 .2611.0784.4544.235.5797.1671.1149.4857.2141.9557.2977l1.034.1723c.5744.094 1.0497.2141 1.4257.3603.376.1463.6736.329.893.5484.2297.2089.3864.4595.47.752.094.2924.141.6319.141 1.0183 0 .7729-.2925 1.3943-.8774 1.8643-.5849.4596-1.4883.6894-2.7103.6894-.4909 0-.9609-.047-1.41-.141-.4387-.0836-.8356-.235-1.1907-.4544-.3446-.2193-.6319-.5117-.8616-.8773-.2194-.3656-.3447-.8251-.376-1.3787z"/>
    <path d="m98.0623 9.008h2.1937v8.178h-2.1937zm-.0313-3.008h2.256v1.974h-2.256z"/>
    <path d="m102.709 10.7157h-1.284v-1.7077h1.284v-2.17767h2.194v2.17767h1.88v1.7077h-1.88v3.7756c0 .4283.089.7207.266.8774.178.1462.407.2193.689.2193.147 0 .293-.0052.439-.0157.157-.0209.308-.0522.454-.094l.314 1.6137c-.303.094-.601.1567-.893.188-.282.0418-.554.0627-.815.0627-.898 0-1.567-.2141-2.005-.6424-.428-.4282-.643-1.1489-.643-2.162z"/>
  </g>
</svg>
